<?xml version="1.0" encoding="UTF-8" standalone="no"?>
<!-- Created with Inkscape (http://www.inkscape.org/) -->

<svg
        xmlns:dc="http://purl.org/dc/elements/1.1/"
        xmlns:cc="http://creativecommons.org/ns#"
        xmlns:rdf="http://www.w3.org/1999/02/22-rdf-syntax-ns#"
        xmlns:sodipodi="http://sodipodi.sourceforge.net/DTD/sodipodi-0.dtd"
        xmlns:inkscape="http://www.inkscape.org/namespaces/inkscape"
        xmlns="http://www.w3.org/2000/svg"
        width="112.88889mm"
        height="44.308891mm"
        viewBox="0 0 112.88889 44.308891"
        version="1.1"
        id="svg8"
        inkscape:version="0.92.4 (5da689c313, 2019-01-14)"
        sodipodi:docname="confidentialEN_DE.svg">
  <defs
          id="defs2"/>
  <sodipodi:namedview
          id="base"
          pagecolor="#ffffff"
          bordercolor="#666666"
          borderopacity="1.0"
          inkscape:pageopacity="0.0"
          inkscape:pageshadow="2"
          inkscape:zoom="0.98994949"
     inkscape:cx="418.99736"
     inkscape:cy="-100.48782"
     inkscape:document-units="mm"
     inkscape:current-layer="layer1"
     showgrid="false"
     inkscape:window-width="2560"
     inkscape:window-height="1330"
     inkscape:window-x="-12"
     inkscape:window-y="-12"
     inkscape:window-maximized="1" />
  <metadata
     id="metadata5">
    <rdf:RDF>
      <cc:Work
         rdf:about="">
        <dc:format>image/svg+xml</dc:format>
        <dc:type
           rdf:resource="http://purl.org/dc/dcmitype/StillImage" />
        <dc:title></dc:title>
      </cc:Work>
    </rdf:RDF>
  </metadata>
  <g
     inkscape:label="Ebene 1"
     inkscape:groupmode="layer"
     id="layer1"
     transform="translate(-29.072661,-190.79782)">
    <path
       style="fill:#FFF;stroke-width:0.28222224"
       d="m 29.072661,212.95227 v -22.15445 h 56.44445 56.444439 v 22.15445 22.15444 H 85.517111 29.072661 Z m 111.477779,0 V 192.20893 H 85.517111 30.483771 v 20.74334 20.74333 h 55.03334 55.033329 z"
       id="path3741"
       inkscape:connector-curvature="0"
       sodipodi:nodetypes="cccccccccccccccccc" />
    <g
       aria-label="CONFIDENTIAL"
       style="font-style:normal;font-weight:normal;font-size:10.58333302px;line-height:1.25;font-family:sans-serif;letter-spacing:0px;word-spacing:0px;fill:#FFF;fill-opacity:1;stroke:none;stroke-width:0.26458332"
       id="text3745"
       transform="translate(-571.95679,-141.11831)">
      <path
         d="m 616.57312,346.41212 q -0.34106,0.14883 -0.62012,0.27905 -0.27285,0.13023 -0.71933,0.27286 -0.37827,0.11782 -0.82476,0.19843 -0.44028,0.0868 -0.97358,0.0868 -1.00459,0 -1.82935,-0.27905 -0.81855,-0.28526 -1.42627,-0.88677 -0.59531,-0.58911 -0.93017,-1.49448 -0.33487,-0.91158 -0.33487,-2.1146 0,-1.14102 0.32246,-2.04019 0.32246,-0.89917 0.93018,-1.51929 0.58911,-0.60151 1.42007,-0.91777 0.83716,-0.31626 1.85415,-0.31626 0.74414,0 1.48208,0.17984 0.74414,0.17983 1.64951,0.63252 v 1.45727 h -0.093 q -0.76274,-0.63872 -1.51308,-0.93018 -0.75035,-0.29145 -1.60611,-0.29145 -0.70073,0 -1.26504,0.22944 -0.5581,0.22325 -0.99838,0.70074 -0.42789,0.46508 -0.66973,1.17822 -0.23565,0.70693 -0.23565,1.63711 0,0.97358 0.26045,1.67431 0.26665,0.70074 0.68213,1.14102 0.43408,0.45889 1.01079,0.68213 0.58291,0.21704 1.22784,0.21704 0.88676,0 1.66191,-0.30386 0.77515,-0.30386 1.45107,-0.91157 h 0.0868 z"
         style="font-size:12.69999981px;stroke-width:0.26458332"
         id="path4589"
         inkscape:connector-curvature="0" />
      <path
         d="m 625.20515,338.9087 q 0.56431,0.62012 0.86196,1.51929 0.30386,0.89917 0.30386,2.04019 0,1.14101 -0.31006,2.04638 -0.30385,0.89917 -0.85576,1.50069 -0.57051,0.62631 -1.35185,0.94257 -0.77515,0.31626 -1.77354,0.31626 -0.97358,0 -1.77353,-0.32246 -0.79375,-0.32246 -1.35186,-0.93637 -0.55811,-0.61392 -0.86196,-1.50689 -0.29766,-0.89297 -0.29766,-2.04018 0,-1.12862 0.29766,-2.02159 0.29765,-0.89917 0.86816,-1.53789 0.5457,-0.60771 1.35186,-0.93017 0.81235,-0.32246 1.76733,-0.32246 0.99219,0 1.77974,0.32866 0.79375,0.32246 1.34565,0.92397 z m -0.11162,3.55948 q 0,-1.79834 -0.80615,-2.77193 -0.80615,-0.97978 -2.20142,-0.97978 -1.40766,0 -2.21382,0.97978 -0.79995,0.97359 -0.79995,2.77193 0,1.81694 0.81856,2.78432 0.81855,0.96118 2.19521,0.96118 1.37666,0 2.18902,-0.96118 0.81855,-0.96738 0.81855,-2.78432 z"
         style="font-size:12.69999981px;stroke-width:0.26458332"
         id="path4591"
         inkscape:connector-curvature="0" />
      <path
         d="m 635.36267,347.08185 h -1.51929 l -4.37802,-8.25996 v 8.25996 h -1.14722 v -9.23355 h 1.90376 l 3.99355,7.54063 v -7.54063 h 1.14722 z"
         style="font-size:12.69999981px;stroke-width:0.26458332"
         id="path4593"
         inkscape:connector-curvature="0" />
      <path
         d="m 643.71565,338.93971 h -4.66948 v 2.60449 h 4.01216 v 1.09141 h -4.01216 v 4.44624 h -1.22783 v -9.23355 h 5.89731 z"
         style="font-size:12.69999981px;stroke-width:0.26458332"
         id="path4595"
         inkscape:connector-curvature="0" />
      <path
         d="m 648.36653,347.08185 h -3.64629 v -0.94258 h 1.20923 v -7.34839 h -1.20923 v -0.94258 h 3.64629 v 0.94258 h -1.20923 v 7.34839 h 1.20923 z"
         style="font-size:12.69999981px;stroke-width:0.26458332"
         id="path4597"
         inkscape:connector-curvature="0" />
      <path
         d="m 658.2698,342.47438 q 0,1.25884 -0.5519,2.28203 -0.54571,1.02319 -1.45728,1.5875 -0.63252,0.39067 -1.41387,0.56431 -0.77514,0.17363 -2.04638,0.17363 h -2.33164 v -9.23355 h 2.30683 q 1.35186,0 2.14561,0.19844 0.79995,0.19224 1.35185,0.5333 0.94258,0.58911 1.46968,1.5689 0.5271,0.97978 0.5271,2.32544 z m -1.28364,-0.0186 q 0,-1.0852 -0.37827,-1.82934 -0.37827,-0.74414 -1.12862,-1.17202 -0.5457,-0.31006 -1.15962,-0.42788 -0.61391,-0.12403 -1.46967,-0.12403 h -1.15342 v 7.12515 h 1.15342 q 0.88676,0 1.54409,-0.13023 0.66352,-0.13022 1.21543,-0.48369 0.68833,-0.44028 1.02939,-1.15962 0.34727,-0.71933 0.34727,-1.79834 z"
         style="font-size:12.69999981px;stroke-width:0.26458332"
         id="path4599"
         inkscape:connector-curvature="0" />
      <path
         d="m 666.34993,347.08185 h -6.08335 v -9.23355 h 6.08335 v 1.09141 h -4.85552 v 2.53008 h 4.85552 v 1.0914 h -4.85552 v 3.42925 h 4.85552 z"
         style="font-size:12.69999981px;stroke-width:0.26458332"
         id="path4601"
         inkscape:connector-curvature="0" />
      <path
         d="m 675.34783,347.08185 h -1.51929 l -4.37803,-8.25996 v 8.25996 h -1.14721 v -9.23355 h 1.90375 l 3.99356,7.54063 v -7.54063 h 1.14722 z"
         style="font-size:12.69999981px;stroke-width:0.26458332"
         id="path4603"
         inkscape:connector-curvature="0" />
      <path
         d="m 684.38913,338.93971 h -3.29902 v 8.14214 h -1.22783 v -8.14214 h -3.29902 v -1.09141 h 7.82587 z"
         style="font-size:12.69999981px;stroke-width:0.26458332"
         id="path4605"
         inkscape:connector-curvature="0" />
      <path
         d="m 688.89738,347.08185 h -3.64628 v -0.94258 h 1.20922 v -7.34839 h -1.20922 v -0.94258 h 3.64628 v 0.94258 h -1.20922 v 7.34839 h 1.20922 z"
         style="font-size:12.69999981px;stroke-width:0.26458332"
         id="path4607"
         inkscape:connector-curvature="0" />
      <path
         d="m 698.27976,347.08185 h -1.30844 l -0.90537,-2.57349 h -3.99356 l -0.90537,2.57349 h -1.24644 l 3.36104,-9.23355 h 1.63711 z m -2.59209,-3.62769 -1.6185,-4.53305 -1.62471,4.53305 z"
         style="font-size:12.69999981px;stroke-width:0.26458332"
         id="path4609"
         inkscape:connector-curvature="0" />
      <path
         d="m 705.52273,347.08185 h -5.8415 v -9.23355 h 1.22783 v 8.14214 h 4.61367 z"
         style="font-size:12.69999981px;stroke-width:0.26458332"
         id="path4611"
         inkscape:connector-curvature="0" />
    </g>
    <g
       aria-label="VERTRAULICH"
       style="font-style:normal;font-weight:normal;font-size:10.58333302px;line-height:1.25;font-family:sans-serif;letter-spacing:0px;word-spacing:0px;fill:#FFF;fill-opacity:1;stroke:none;stroke-width:0.26458332"
       id="text3749"
       transform="translate(-571.95679,-141.11831)">
      <path
         d="m 620.84182,361.47184 -3.36103,9.23354 h -1.63711 l -3.36104,-9.23354 h 1.31465 l 2.89595,8.12353 2.89594,-8.12353 z"
         style="font-size:12.69999981px;stroke-width:0.26458332"
         id="path4614"
         inkscape:connector-curvature="0" />
      <path
         d="m 628.32664,370.70538 h -6.08335 v -9.23354 h 6.08335 v 1.0914 h -4.85552 v 2.53008 h 4.85552 v 1.09141 h -4.85552 v 3.42925 h 4.85552 z"
         style="font-size:12.69999981px;stroke-width:0.26458332"
         id="path4616"
         inkscape:connector-curvature="0" />
      <path
         d="m 637.91985,370.70538 h -1.5937 l -3.08819,-3.67109 h -1.73012 v 3.67109 H 630.28 v -9.23354 h 2.58589 q 0.83716,0 1.39527,0.11162 0.5581,0.10542 1.00459,0.38447 0.50229,0.31626 0.78134,0.79995 0.28526,0.47749 0.28526,1.21543 0,0.99839 -0.5023,1.67432 -0.50229,0.66973 -1.38286,1.01079 z m -2.87114,-6.63525 q 0,-0.39688 -0.14263,-0.70073 -0.13643,-0.31006 -0.45889,-0.5209 -0.26665,-0.17984 -0.63252,-0.24805 -0.36587,-0.0744 -0.86196,-0.0744 h -1.44487 v 3.48506 h 1.24023 q 0.58291,0 1.01699,-0.0992 0.43409,-0.10542 0.73794,-0.38448 0.27906,-0.26044 0.40928,-0.59531 0.13643,-0.34106 0.13643,-0.86196 z"
         style="font-size:12.69999981px;stroke-width:0.26458332"
         id="path4618"
         inkscape:connector-curvature="0" />
      <path
         d="m 645.32405,362.56324 h -3.29903 v 8.14214 h -1.22783 v -8.14214 h -3.29902 v -1.0914 h 7.82588 z"
         style="font-size:12.69999981px;stroke-width:0.26458332"
         id="path4620"
         inkscape:connector-curvature="0" />
      <path
         d="m 654.21653,370.70538 h -1.5937 l -3.08819,-3.67109 h -1.73012 v 3.67109 h -1.22784 v -9.23354 h 2.58589 q 0.83716,0 1.39527,0.11162 0.5581,0.10542 1.00459,0.38447 0.50229,0.31626 0.78134,0.79995 0.28526,0.47749 0.28526,1.21543 0,0.99839 -0.5023,1.67432 -0.50229,0.66973 -1.38286,1.01079 z m -2.87115,-6.63525 q 0,-0.39688 -0.14262,-0.70073 -0.13643,-0.31006 -0.45889,-0.5209 -0.26665,-0.17984 -0.63252,-0.24805 -0.36587,-0.0744 -0.86196,-0.0744 h -1.44487 v 3.48506 h 1.24023 q 0.58291,0 1.01699,-0.0992 0.43408,-0.10542 0.73794,-0.38448 0.27905,-0.26044 0.40928,-0.59531 0.13642,-0.34106 0.13642,-0.86196 z"
         style="font-size:12.69999981px;stroke-width:0.26458332"
         id="path4622"
         inkscape:connector-curvature="0" />
      <path
         d="m 662.68733,370.70538 h -1.30845 l -0.90537,-2.57348 h -3.99356 l -0.90537,2.57348 h -1.24643 l 3.36103,-9.23354 h 1.63711 z m -2.59209,-3.62768 -1.61851,-4.53306 -1.62471,4.53306 z"
         style="font-size:12.69999981px;stroke-width:0.26458332"
         id="path4624"
         inkscape:connector-curvature="0" />
      <path
         d="m 670.9907,366.99708 q 0,1.00459 -0.22324,1.75493 -0.21705,0.74414 -0.71934,1.24024 -0.47749,0.47129 -1.11621,0.68833 -0.63872,0.21704 -1.48828,0.21704 -0.86817,0 -1.51309,-0.22944 -0.64492,-0.22945 -1.0852,-0.67593 -0.5023,-0.5085 -0.72554,-1.22783 -0.21704,-0.71934 -0.21704,-1.76734 v -5.52524 h 1.22783 v 5.58725 q 0,0.75035 0.0992,1.18443 0.10542,0.43408 0.34727,0.78755 0.27285,0.40307 0.73793,0.60771 0.47129,0.20464 1.12862,0.20464 0.66352,0 1.12861,-0.19844 0.46509,-0.20464 0.74414,-0.61391 0.24185,-0.35347 0.34107,-0.80616 0.10542,-0.45888 0.10542,-1.13481 v -5.61826 h 1.22783 z"
         style="font-size:12.69999981px;stroke-width:0.26458332"
         id="path4626"
         inkscape:connector-curvature="0" />
      <path
         d="m 679.18245,370.70538 h -5.84151 v -9.23354 h 1.22783 v 8.14214 h 4.61368 z"
         style="font-size:12.69999981px;stroke-width:0.26458332"
         id="path4628"
         inkscape:connector-curvature="0" />
      <path
         d="m 683.66589,370.70538 h -3.64629 v -0.94257 h 1.20923 v -7.34839 h -1.20923 v -0.94258 h 3.64629 v 0.94258 h -1.20923 v 7.34839 h 1.20923 z"
         style="font-size:12.69999981px;stroke-width:0.26458332"
         id="path4630"
         inkscape:connector-curvature="0" />
      <path
         d="m 692.89944,370.03566 q -0.34107,0.14882 -0.62012,0.27905 -0.27285,0.13022 -0.71934,0.27285 -0.37827,0.11782 -0.82475,0.19844 -0.44029,0.0868 -0.97359,0.0868 -1.00459,0 -1.82934,-0.27905 -0.81856,-0.28525 -1.42627,-0.88677 -0.59531,-0.58911 -0.93018,-1.49448 -0.33486,-0.91157 -0.33486,-2.1146 0,-1.14101 0.32246,-2.04018 0.32246,-0.89917 0.93018,-1.51929 0.58911,-0.60151 1.42006,-0.91777 0.83716,-0.31626 1.85416,-0.31626 0.74414,0 1.48208,0.17983 0.74414,0.17983 1.64951,0.63252 v 1.45728 h -0.093 q -0.76274,-0.63872 -1.51309,-0.93018 -0.75034,-0.29146 -1.6061,-0.29146 -0.70073,0 -1.26504,0.22945 -0.5581,0.22324 -0.99839,0.70073 -0.42788,0.46509 -0.66972,1.17822 -0.23565,0.70694 -0.23565,1.63711 0,0.97359 0.26045,1.67432 0.26665,0.70073 0.68213,1.14101 0.43408,0.45889 1.01079,0.68213 0.58291,0.21704 1.22783,0.21704 0.88677,0 1.66192,-0.30385 0.77514,-0.30386 1.45107,-0.91158 h 0.0868 z"
         style="font-size:12.69999981px;stroke-width:0.26458332"
         id="path4632"
         inkscape:connector-curvature="0" />
      <path
         d="m 701.71131,370.70538 h -1.22784 v -4.52065 H 695.876 v 4.52065 h -1.22783 v -9.23354 h 1.22783 v 3.62148 h 4.60747 v -3.62148 h 1.22784 z"
         style="font-size:12.69999981px;stroke-width:0.26458332"
         id="path4634"
         inkscape:connector-curvature="0" />
    </g>
    <path
       style="fill:#FFF;stroke-width:0.26458332"
       d="m 49.908631,212.38914 h 70.965029 v 1.13392 H 49.908631 Z"
       id="rect3751"
       inkscape:connector-curvature="0" />
  </g>
</svg>
